<svg xmlns="http://www.w3.org/2000/svg" viewBox="-0.00000762939 0 170.2 291.3">
	<defs>
		<linearGradient id="Gradient1">
			<stop class="stop1" offset="0%" />
			<stop class="stop2" offset="50%" />
			<stop class="stop3" offset="100%" />
		</linearGradient>
		<linearGradient id="gradient">
			<stop offset="20%" stop-color="#96a4eb" />
			<stop offset="50%" stop-color="#7cbdee" stop-opacity="1" />
			<stop offset="80%" stop-color="#83e3f0" />
		</linearGradient>
	</defs>
	<path fill="url(#gradient)" d="M 54.8268 291.286 C 30.4568 269.666 -9.8032 228.156 2.1768 165.599 C 5.1058 146.638 20.6338 113.48 61.9428 87.35 C 89.4488 67.366 141.2688 42.938 161.7518 0 C 169.3118 46.631 153.8088 89.017 118.9048 116.349 C 66.5628 157.427 12.0498 173.806 17.8738 236.227 C 13.5358 194.108 44.7928 166.343 86.6048 143.642 C 115.7488 128.492 153.3138 108.717 170.1518 80.746 C 169.4648 148.498 119.2108 177.032 105.1248 184.036 C 78.9358 198.917 26.0328 216.68 36.0968 261.889 C 30.3588 229.656 54.6468 210.528 85.3108 198.612 C 102.6118 191.613 131.2818 181.795 146.7798 169.985 C 130.4548 214.157 98.8608 225.806 85.9178 231.429 C 58.9728 243.482 32.8278 251.992 54.8268 291.286 Z"/>
</svg>
